HIERARCHY
ROOT root
{
	OFFSET 0.000000 0.000000 0.000000
	CHANNELS 6 Xposition Yposition Zposition Zrotation Yrotation Xrotation
	JOINT lhip
	{
		OFFSET 0.058581 -0.082280 -0.017664
		CHANNELS 3 Zrotation Yrotation Xrotation
		JOINT lknee
		{
			OFFSET 0.043451 -0.386469 0.008037
			CHANNELS 3 Zrotation Yrotation Xrotation
			JOINT lankle
			{
				OFFSET -0.014790 -0.426874 -0.037428
				CHANNELS 3 Zrotation Yrotation Xrotation
				JOINT ltoe
				{
					OFFSET 0.041054 -0.060286 0.122042
					CHANNELS 3 Zrotation Yrotation Xrotation
					End Site
					{
						OFFSET 0.000000 0.000000 0.000000
					}
				}
			}
		}
	}
	JOINT rhip
	{
		OFFSET -0.060310 -0.090513 -0.013543
		CHANNELS 3 Zrotation Yrotation Xrotation
		JOINT rknee
		{
			OFFSET -0.043257 -0.383688 -0.004843
			CHANNELS 3 Zrotation Yrotation Xrotation
			JOINT rankle
			{
				OFFSET 0.019056 -0.420046 -0.034562
				CHANNELS 3 Zrotation Yrotation Xrotation
				JOINT rtoe
				{
					OFFSET -0.034840 -0.062106 0.130323
					CHANNELS 3 Zrotation Yrotation Xrotation
					End Site
					{
						OFFSET 0.000000 0.000000 0.000000
					}
				}
			}
		}
	}
	JOINT lowerback
	{
		OFFSET 0.004439 0.124404 -0.038385
		CHANNELS 3 Zrotation Yrotation Xrotation
		JOINT upperback
		{
			OFFSET 0.004488 0.137956 0.026820
			CHANNELS 3 Zrotation Yrotation Xrotation
			JOINT chest
			{
				OFFSET -0.002265 0.056032 0.002855
				CHANNELS 3 Zrotation Yrotation Xrotation
				JOINT lowerneck
				{
					OFFSET -0.013390 0.211636 -0.033468
					CHANNELS 3 Zrotation Yrotation Xrotation
					JOINT upperneck
					{
						OFFSET 0.010113 0.088937 0.050410
						CHANNELS 3 Zrotation Yrotation Xrotation
						End Site
						{
							OFFSET 0.000000 0.000000 0.000000
						}
					}
				}
				JOINT lclavicle
				{
					OFFSET 0.071702 0.114000 -0.018898
					CHANNELS 3 Zrotation Yrotation Xrotation
					JOINT lshoulder
					{
						OFFSET 0.122921 0.045205 -0.019046
						CHANNELS 3 Zrotation Yrotation Xrotation
						JOINT lelbow
						{
							OFFSET 0.255332 -0.015649 -0.022946
							CHANNELS 3 Zrotation Yrotation Xrotation
							JOINT lwrist
							{
								OFFSET 0.265709 0.012698 -0.007375
								CHANNELS 3 Zrotation Yrotation Xrotation
								End Site
								{
									OFFSET 0.000000 0.000000 0.000000
								}
							}
						}
					}
				}
				JOINT rclavicle
				{
					OFFSET -0.082954 0.112472 -0.023707
					CHANNELS 3 Zrotation Yrotation Xrotation
					JOINT rshoulder
					{
						OFFSET -0.113228 0.046853 -0.008472
						CHANNELS 3 Zrotation Yrotation Xrotation
						JOINT relbow
						{
							OFFSET -0.260127 -0.014369 -0.031269
							CHANNELS 3 Zrotation Yrotation Xrotation
							JOINT rwrist
							{
								OFFSET -0.269108 0.006794 -0.006027
								CHANNELS 3 Zrotation Yrotation Xrotation
								End Site
								{
									OFFSET 0.000000 0.000000 0.000000
								}
							}
						}
					}
				}
			}
		}
	}
}
MOTION
Frames: 9
Frame Time: 0.033333
2.335646 0.697476 0.999278 -97.036114 -0.511526 85.995908 -1.123316 2.183850 3.221446 -0.212199 -4.654594 2.818053 3.704996 10.264044 -7.066455 0.000000 -0.000000 0.000000 1.143353 -1.614616 0.799318 -3.105226 0.933274 4.883122 1.060305 -7.235949 -8.162785 0.000000 -0.000000 0.000000 -1.196802 1.855719 8.399313 -0.652377 -1.230410 1.976243 -1.311232 -0.540911 -0.259662 1.222262 0.644046 2.360058 0.740840 -2.272950 11.689062 -26.934538 -4.956802 2.574174 -52.371100 -10.040183 12.567177 4.006073 -22.403237 26.007876 -14.494506 -2.909357 0.760412 25.712858 7.994494 5.990492 58.419391 2.442992 18.044753 -5.094640 29.994141 14.122947 14.779643 4.523128 -8.615567 
2.338057 0.697413 0.996959 -95.705945 0.085990 86.896848 -0.538373 0.757928 1.297139 -0.358684 -4.713655 3.783830 3.597619 10.530907 -7.247631 0.000000 -0.000000 0.000000 1.877516 -1.589086 -0.368702 -3.096077 1.044821 4.902237 1.336451 -8.686578 -7.995038 0.000000 -0.000000 0.000000 -1.025171 1.346843 8.374218 -0.309882 -1.251269 0.047362 -1.258154 0.241656 0.817275 1.985663 0.521475 1.147297 0.118058 -1.777237 14.607614 -27.968396 -4.913644 3.489340 -51.672491 -10.864795 12.049901 -1.383205 -20.648387 19.058440 -4.203917 -6.365787 -2.235533 25.249327 7.185643 5.814541 58.062491 2.619857 19.452447 -3.399303 29.945753 13.632777 6.465531 5.067507 -9.336976 
2.338990 0.697929 0.996472 -94.747217 0.026833 86.813991 -0.555852 0.509645 0.947983 -0.522750 -5.201428 4.186825 3.360591 10.277965 -7.118270 0.000000 -0.000000 0.000000 2.102070 -1.642767 -0.580670 -3.586151 0.599307 5.498300 1.361801 -9.107921 -8.322841 0.000000 -0.000000 0.000000 -1.276576 1.400536 8.571091 -0.271782 -1.124681 -0.310892 -1.170408 0.370784 1.094389 2.019822 0.413372 1.553225 0.275050 -2.036531 14.673538 -27.506741 -4.885970 3.579132 -52.393907 -11.067776 12.452734 -1.579880 -20.801372 19.859018 -2.730602 -7.077031 -3.487411 25.226616 7.127458 5.930875 58.252199 2.777807 19.427306 -3.498416 29.864642 13.949177 4.412068 5.330379 -9.206134 
2.339260 0.698044 0.996576 -93.646500 -0.044855 86.447721 -0.713932 0.446553 1.395098 -0.351331 -5.988533 3.796870 3.294130 10.014213 -6.883237 0.000000 -0.000000 0.000000 1.967295 -2.163131 -0.001107 -3.563445 0.138745 5.317568 1.334511 -9.233978 -8.454447 0.000000 -0.000000 0.000000 -1.185387 1.673891 8.705774 -0.419461 -1.010769 -0.179990 -1.192466 0.412547 1.320086 1.798706 0.282767 2.016751 0.384628 -2.116276 14.446463 -27.366350 -5.152844 3.461864 -52.700973 -10.985065 13.091810 -1.943864 -20.966280 20.387890 -1.230037 -7.115748 -3.579006 25.151534 7.360621 5.729577 58.426587 2.716191 19.571667 -3.398556 30.164618 13.731117 3.120668 4.375251 -8.873562 
2.340341 0.698065 0.996705 -92.846240 -0.102147 86.438323 -0.733782 0.159193 1.125109 -0.480338 -6.277589 4.032722 3.346860 9.751155 -6.848490 0.000000 -0.000000 0.000000 1.857230 -2.383866 0.026061 -3.524057 -0.215017 5.280016 1.288762 -9.405809 -8.345008 0.000000 -0.000000 0.000000 -1.186994 1.734610 8.621841 -0.450457 -1.150997 0.041229 -1.250019 0.581509 1.225198 1.872715 0.502969 1.980580 0.244691 -2.131322 14.804869 -27.313659 -5.180750 3.522784 -52.747229 -11.223643 13.080378 -2.170115 -20.973804 20.665034 -1.431344 -7.383323 -3.608437 25.228975 7.508154 5.853285 58.480215 2.891201 19.508592 -3.518841 30.155045 13.818042 2.811148 4.657141 -8.808897 
2.340443 0.698280 0.996770 -91.996074 -0.078797 86.262955 -0.655533 -0.039735 1.176162 -0.564826 -6.641015 4.120414 3.059021 9.386135 -6.774991 0.000000 -0.000000 0.000000 1.898779 -2.723809 0.335636 -3.606540 -0.668720 5.218652 1.272847 -9.615749 -8.438368 0.000000 -0.000000 0.000000 -1.100200 2.007193 8.725470 -0.411496 -1.039181 0.015836 -1.217208 0.522405 1.221054 1.622458 0.830101 2.202579 0.101678 -2.104702 14.748623 -27.481663 -5.383293 3.613270 -52.767490 -11.244864 13.256788 -2.374296 -20.814312 20.947342 -0.437497 -7.724574 -3.313432 25.264308 7.612405 5.963245 58.382677 2.964037 19.425151 -3.332849 29.955580 14.281791 1.403004 5.056734 -8.556952 
2.341499 0.698474 0.996866 -90.967745 -0.087930 86.448679 -0.643067 -0.446457 0.657483 -0.629274 -7.080117 4.350648 3.104824 9.239805 -6.752552 0.000000 -0.000000 0.000000 1.946016 -2.896605 0.076150 -3.657141 -0.923252 5.341418 1.196477 -9.974963 -8.534739 0.000000 -0.000000 0.000000 -1.072613 2.069897 8.779671 -0.392377 -1.047901 -0.406757 -1.149302 0.511901 1.215091 1.550607 1.350606 2.550510 -0.056344 -1.528912 14.660480 -27.555064 -5.313638 3.533744 -52.768526 -11.153954 13.495401 -2.602994 -20.808038 21.597876 1.539352 -7.607936 -2.918243 25.298884 7.658344 6.119278 58.220410 3.165299 19.573509 -2.957059 29.703009 14.834196 0.286290 4.956872 -8.595353 
2.343041 0.698929 0.996695 -90.491949 -0.269135 86.213198 -0.803377 -0.253053 0.781214 -0.704003 -7.646346 4.289944 3.075949 9.102185 -6.714379 0.000000 -0.000000 0.000000 1.867853 -2.747428 0.136075 -3.846558 -1.351309 5.632821 1.086626 -10.257109 -8.721273 0.000000 -0.000000 0.000000 -0.934893 1.914149 9.518174 -0.752165 -0.662917 -0.758627 -1.107473 0.666572 1.081319 1.650940 2.597845 2.263571 0.100139 0.034214 14.529060 -27.454541 -5.508952 3.280146 -52.765980 -10.827184 13.540517 -2.573685 -21.052821 21.556433 2.383647 -7.797663 -3.063728 25.294291 8.126851 6.250798 58.315738 3.470690 19.825920 -2.852808 29.715628 14.628868 -0.398662 4.627460 -8.064211 
2.343449 0.699236 0.996471 -89.433850 -0.315945 86.188632 -0.956874 -0.524120 0.789370 -0.573471 -8.200403 4.140376 2.960683 8.809070 -6.575338 0.000000 -0.000000 0.000000 1.851181 -3.134618 0.252159 -3.845767 -1.574580 5.624604 0.918079 -10.637749 -8.867855 0.000000 -0.000000 0.000000 -0.837304 1.914344 9.455402 -0.793487 -0.729322 -0.542153 -0.897938 0.717628 0.980905 1.987223 4.606652 1.937616 -0.017997 2.877521 13.881433 -27.653786 -5.839898 3.283536 -52.686618 -10.690748 13.551342 -2.566833 -21.202823 21.171425 3.186717 -7.702019 -3.167550 24.956737 8.355380 6.484388 58.064683 3.905944 19.978692 -2.054791 29.755921 14.630068 -1.433010 4.522370 -8.449133 
